<svg width="445" height="140" viewBox="0 0 445 140" fill="none" xmlns="http://www.w3.org/2000/svg">
<path d="M428.571 137.904H16.7361C8.34643 137.904 1.51953 131.077 1.51953 122.687V16.9939C1.51953 8.60424 8.34643 1.77734 16.7361 1.77734H428.489C436.878 1.77734 443.705 8.60424 443.705 16.9939V122.687C443.787 131.077 436.961 137.904 428.571 137.904Z" fill="white"/>
<path d="M428.162 139.137H17.1495C7.93728 139.137 0.370117 131.57 0.370117 122.358V17.4044C0.370117 8.19216 7.93728 0.625 17.1495 0.625H428.162C437.374 0.625 444.941 8.19216 444.941 17.4044V122.358C444.941 131.57 437.456 139.137 428.162 139.137ZM17.1495 2.92804C9.17106 2.92804 2.75542 9.42593 2.75542 17.3221V122.275C2.75542 130.254 9.25331 136.669 17.1495 136.669H428.162C436.14 136.669 442.556 130.172 442.556 122.275V17.4044C442.556 9.42594 436.058 3.0103 428.162 3.0103H17.1495V2.92804Z" fill="#2B2C2D"/>
<path d="M175.565 47.0184C175.565 49.0747 174.989 50.6374 173.755 51.8712C172.357 53.2695 170.63 54.0098 168.409 54.0098C166.27 54.0098 164.543 53.2695 163.063 51.789C161.582 50.3084 160.842 48.4989 160.842 46.3604C160.842 44.2218 161.582 42.4123 163.063 40.9317C164.543 39.4512 166.353 38.7109 168.409 38.7109C169.478 38.7109 170.465 38.8755 171.37 39.2867C172.357 39.698 173.097 40.2737 173.673 40.9317L172.357 42.2478C171.37 41.0963 170.054 40.5205 168.327 40.5205C166.764 40.5205 165.448 41.0962 164.379 42.1655C163.227 43.2348 162.734 44.6331 162.734 46.3604C162.734 48.0877 163.309 49.4859 164.379 50.5552C165.53 51.6245 166.846 52.2002 168.327 52.2002C169.972 52.2002 171.288 51.6245 172.439 50.5552C173.18 49.8149 173.591 48.8279 173.673 47.5941H168.409V45.8669H175.483C175.565 46.2781 175.565 46.6894 175.565 47.0184Z" fill="#333333"/>
<path d="M186.749 40.9267H180.087V45.5328H186.091V47.2601H180.087V51.8662H186.749V53.6758H178.277V39.1172H186.749V40.9267Z" fill="#333333"/>
<path d="M194.651 53.6758H192.759V40.9267H188.646V39.1172H198.681V40.9267H194.569V53.6758H194.651Z" fill="#333333"/>
<path d="M205.999 53.6758V39.1172H207.891V53.6758H205.999Z" fill="#333333"/>
<path d="M216.2 53.6758H214.309V40.9267H210.278V39.1172H220.313V40.9267H216.2V53.6758Z" fill="#333333"/>
<path d="M239.232 51.789C237.833 53.2695 236.024 54.0098 233.885 54.0098C231.747 54.0098 229.937 53.2695 228.539 51.789C227.141 50.3084 226.4 48.4989 226.4 46.3604C226.4 44.2218 227.141 42.4123 228.539 40.9317C229.937 39.4512 231.747 38.7109 233.885 38.7109C236.024 38.7109 237.751 39.4512 239.232 40.9317C240.63 42.4123 241.37 44.2218 241.37 46.3604C241.37 48.5812 240.63 50.3084 239.232 51.789ZM229.937 50.6374C231.006 51.7067 232.323 52.2825 233.885 52.2825C235.448 52.2825 236.764 51.7067 237.833 50.6374C238.903 49.5682 239.478 48.1699 239.478 46.4426C239.478 44.7153 238.903 43.3171 237.833 42.2478C236.764 41.1785 235.448 40.6027 233.885 40.6027C232.323 40.6027 231.006 41.1785 229.937 42.2478C228.868 43.3171 228.292 44.7153 228.292 46.4426C228.292 48.1699 228.786 49.4859 229.937 50.6374Z" fill="#333333"/>
<path d="M244.001 53.6758V39.1172H246.304L253.378 50.4679H253.46L253.378 47.6714V39.1172H255.269V53.6758H253.295L245.893 41.7493H245.811L245.893 44.5458V53.5935H244.001V53.6758Z" fill="#333333"/>
<path d="M225.906 74.9881C223.027 74.9881 220.395 76.0574 218.503 77.9492C216.611 79.7587 215.542 82.3085 215.542 85.3519C215.542 88.4774 216.858 91.1917 218.915 93.0835C220.724 94.7286 223.192 95.7156 225.906 95.7156C228.456 95.7156 230.759 94.8931 232.568 93.4125C234.871 91.5207 236.27 88.7242 236.27 85.4341C236.27 82.9666 235.529 80.828 234.213 79.1007C232.322 76.4687 229.278 74.9881 225.906 74.9881ZM225.906 91.603C222.78 91.603 220.066 89.0532 220.066 85.3519C220.066 81.6505 222.78 79.1007 225.906 79.1007C229.031 79.1007 231.746 81.6505 231.746 85.3519C231.746 88.9709 229.031 91.603 225.906 91.603ZM203.287 74.9881C201.148 74.9881 199.174 75.5639 197.529 76.7154C194.732 78.525 192.923 81.6505 192.923 85.3519C192.923 88.3129 194.074 90.945 195.966 92.7545C197.858 94.5641 200.408 95.7156 203.287 95.7156C205.672 95.7156 207.811 94.9753 209.62 93.6593C212.088 91.8498 213.65 88.8887 213.65 85.3519C213.65 83.3778 213.157 81.5683 212.252 80.0055C210.443 76.8799 207.07 74.9881 203.287 74.9881ZM203.287 91.603C200.161 91.603 197.447 89.0532 197.447 85.3519C197.447 81.6505 200.161 79.1007 203.287 79.1007C206.412 79.1007 209.127 81.6505 209.127 85.3519C209.127 88.9709 206.412 91.603 203.287 91.603ZM176.39 78.1137V82.473H181.901H186.919C186.59 84.9406 185.767 86.7501 184.533 87.9839C182.97 89.5467 180.585 91.1917 176.39 91.1917C169.892 91.1917 164.875 86.0099 164.875 79.512C164.875 73.0141 169.892 67.8322 176.39 67.8322C179.845 67.8322 182.395 69.2305 184.287 70.9578L187.412 67.8322C184.78 65.3647 181.325 63.3906 176.39 63.3906C173.347 63.3906 170.55 64.2132 168.083 65.6937C163.312 68.4903 160.104 73.5898 160.104 79.4297C160.104 85.4341 163.559 90.6982 168.576 93.4948C170.879 94.8108 173.594 95.5511 176.39 95.5511C181.161 95.5511 184.78 93.9883 187.577 91.0272C190.455 88.1484 191.36 84.0358 191.36 80.7458C191.36 79.7587 191.278 78.7717 191.113 78.0315H183.546H176.39V78.1137ZM286.443 81.5683C285.621 79.2652 282.989 74.9881 277.56 74.9881C275.257 74.9881 273.118 75.7284 271.473 77.1267C269.253 78.9362 267.854 81.815 267.854 85.3519C267.854 91.1095 272.214 95.7156 278.136 95.7156C282.906 95.7156 285.621 92.8368 286.772 91.1095L283.235 88.7242C282.084 90.4515 280.439 91.603 278.136 91.603C275.833 91.603 274.188 90.5337 273.118 88.4774L286.937 82.8021L286.443 81.5683ZM272.378 85.0229C272.296 80.9925 275.504 79.0185 277.807 79.0185C279.616 79.0185 281.097 79.9232 281.673 81.2393L276.82 83.2133L272.378 85.0229ZM261.11 94.9753H265.634V64.6244H261.11V94.9753ZM253.707 77.2912H253.543C252.555 76.0574 250.581 74.9881 248.114 74.9881C245.729 74.9881 243.426 75.9752 241.616 77.6202C239.56 79.512 238.161 82.2263 238.161 85.4341C238.161 89.0532 239.971 92.1788 242.685 93.9883C244.248 95.0576 246.14 95.7156 248.114 95.7156C250.581 95.7156 252.555 94.6463 253.543 93.3303H253.707V94.8108C253.707 98.7589 251.568 100.897 248.196 100.897C245.4 100.897 243.672 98.9234 243.014 97.1961L239.066 98.8412C240.218 101.555 243.179 104.928 248.196 104.928C253.543 104.928 257.984 101.802 257.984 94.1528V75.5639H253.707V77.2912ZM248.443 91.603C245.317 91.603 242.685 88.9709 242.685 85.3519C242.685 81.7328 245.317 79.0185 248.443 79.0185C251.568 79.0185 253.954 81.6505 253.954 85.3519C254.036 88.9709 251.568 91.603 248.443 91.603ZM307.746 64.6244H296.889V94.9753H301.413V83.4601H307.746C310.625 83.4601 313.504 82.2263 315.396 80.17C316.794 78.6072 317.699 76.5509 317.699 74.0834C317.699 71.6158 316.794 69.6418 315.478 68.079C313.504 65.8582 310.625 64.6244 307.746 64.6244ZM307.829 79.2652H301.413V68.8192H307.829C311.201 68.8192 313.175 71.6158 313.175 74.0011C313.175 76.3864 311.201 79.2652 307.829 79.2652ZM335.877 74.9059C332.586 74.9059 329.214 76.3864 327.816 79.5942L331.846 81.2393C332.669 79.5942 334.314 79.0185 335.959 79.0185C338.344 79.0185 340.647 80.4168 340.729 82.9666V83.2956C339.907 82.8021 338.18 82.144 336.041 82.144C334.149 82.144 332.257 82.5553 330.777 83.4601C328.721 84.6116 327.322 86.4211 327.322 88.9709C327.322 91.1917 328.392 92.919 329.954 94.1528C331.27 95.1398 332.998 95.7156 334.89 95.7156C337.933 95.7156 339.578 94.3173 340.647 92.7545H340.812V95.1398H345.171V87.9839V83.4601C345.171 80.2522 343.773 77.8669 341.552 76.4687C339.907 75.3994 337.933 74.9059 335.877 74.9059ZM335.301 91.5207C333.82 91.5207 331.764 90.7805 331.764 88.9709C331.764 86.5856 334.314 85.7631 336.535 85.7631C338.509 85.7631 339.496 86.1744 340.647 86.7501C340.318 89.5467 337.933 91.5207 335.301 91.5207ZM361.046 75.5639L358.907 80.9925L355.864 88.7242H355.699L350.271 75.5639H345.418L349.284 84.4471L353.478 93.9883L348.872 104.188H353.561L362.444 83.8713L366.063 75.5639H361.046ZM320.166 94.9753H324.69V64.6244H320.166V94.9753Z" fill="#333333"/>
<path d="M125.721 59.2674L89.6125 38.0464C87.803 36.9771 85.5822 37.5529 84.4307 39.1157L115.028 69.8778L125.721 59.2674Z" fill="url(#paint0_linear_1116_3183)"/>
<path d="M83.6885 98.0959C83.6885 98.9184 83.9352 99.7409 84.3465 100.317L115.026 69.8013L84.4287 39.0391C83.9352 39.6971 83.6885 40.4374 83.6885 41.3421V98.0959Z" fill="url(#paint1_linear_1116_3183)"/>
<path d="M125.562 80.4043L137.9 73.1662C140.45 71.6856 140.45 67.9021 137.9 66.4215L125.727 59.2656L115.034 69.8761L125.562 80.4043Z" fill="url(#paint2_linear_1116_3183)"/>
<path d="M84.3486 100.394C85.4179 101.957 87.721 102.615 89.5305 101.546L125.475 80.4892L114.946 69.9609L84.3486 100.394Z" fill="url(#paint3_linear_1116_3183)"/>
<defs>
<linearGradient id="paint0_linear_1116_3183" x1="35.5251" y1="-5.1384" x2="109.996" y2="56.0458" gradientUnits="userSpaceOnUse">
<stop stop-color="#32A071"/>
<stop offset="0.0685" stop-color="#2DA771"/>
<stop offset="0.4762" stop-color="#15CF74"/>
<stop offset="0.8009" stop-color="#06E775"/>
<stop offset="1" stop-color="#00F076"/>
</linearGradient>
<linearGradient id="paint1_linear_1116_3183" x1="136.383" y1="69.4484" x2="80.7763" y2="69.7764" gradientUnits="userSpaceOnUse">
<stop stop-color="#00A0FF"/>
<stop offset="0.00657445" stop-color="#00A1FF"/>
<stop offset="0.2601" stop-color="#00BEFF"/>
<stop offset="0.5122" stop-color="#00D2FF"/>
<stop offset="0.7604" stop-color="#00DFFF"/>
<stop offset="1" stop-color="#00E3FF"/>
</linearGradient>
<linearGradient id="paint2_linear_1116_3183" x1="144.179" y1="71.3003" x2="93.9851" y2="67.3635" gradientUnits="userSpaceOnUse">
<stop stop-color="#FFE000"/>
<stop offset="0.4087" stop-color="#FFBD00"/>
<stop offset="0.7754" stop-color="#FFA500"/>
<stop offset="1" stop-color="#FF9C00"/>
</linearGradient>
<linearGradient id="paint3_linear_1116_3183" x1="137.638" y1="63.6368" x2="41.0224" y2="127.774" gradientUnits="userSpaceOnUse">
<stop stop-color="#FF3A44"/>
<stop offset="1" stop-color="#C31162"/>
</linearGradient>
</defs>
</svg>
