<svg width="111" height="114" viewBox="0 0 111 114" fill="none" xmlns="http://www.w3.org/2000/svg">
<g filter="url(#filter0_ddii_2069_1975)">
<rect x="28.5078" y="28.1875" width="64.8472" height="66.5986" fill="url(#paint0_linear_2069_1975)" fill-opacity="0.13" shape-rendering="crispEdges"/>
</g>
<mask id="mask0_2069_1975" style="mask-type:alpha" maskUnits="userSpaceOnUse" x="28" y="28" width="66" height="67">
<rect x="28.5078" y="28.1875" width="64.8472" height="66.5986" fill="#010305"/>
<rect x="28.5078" y="28.1875" width="64.8472" height="66.5986" stroke="url(#paint1_linear_2069_1975)"/>
</mask>
<g mask="url(#mask0_2069_1975)">
<g filter="url(#filter1_f_2069_1975)">
<ellipse cx="60.931" cy="102.035" rx="23.1419" ry="9.5625" fill="#FADB14" fill-opacity="0.56"/>
</g>
</g>
<rect x="28.5078" y="93.1953" width="63.4653" height="1.59012" fill="url(#paint2_linear_2069_1975)"/>
<path d="M72.8321 59.0178L72.7975 58.9293L69.4467 50.1844C69.3785 50.013 69.2578 49.8676 69.1018 49.769C68.9458 49.6722 68.7638 49.6255 68.5804 49.6354C68.397 49.6452 68.2211 49.7111 68.0763 49.8242C67.9332 49.9404 67.8294 50.098 67.7789 50.2754L65.5164 57.1975H56.3549L54.0924 50.2754C54.0433 50.097 53.9393 49.9387 53.795 49.8229C53.6502 49.7099 53.4743 49.644 53.2909 49.6341C53.1075 49.6242 52.9255 49.6709 52.7695 49.7678C52.6139 49.8667 52.4933 50.012 52.4247 50.1831L49.0674 58.9242L49.0341 59.0126C48.5517 60.273 48.4922 61.656 48.8645 62.9531C49.2367 64.2503 50.0206 65.3912 51.0979 66.2039L51.1095 66.2129L51.1402 66.2347L56.2447 70.0573L58.7699 71.9685L60.3082 73.1299C60.4881 73.2665 60.7078 73.3405 60.9337 73.3405C61.1597 73.3405 61.3794 73.2665 61.5593 73.1299L63.0975 71.9685L65.6228 70.0573L70.758 66.2116L70.7708 66.2014C71.8457 65.3885 72.6278 64.2487 72.9995 62.9533C73.3712 61.6579 73.3124 60.2769 72.8321 59.0178Z" fill="#FADB14"/>
<defs>
<filter id="filter0_ddii_2069_1975" x="0.973191" y="0.652879" width="109.903" height="112.906" filterUnits="userSpaceOnUse" color-interpolation-filters="sRGB">
<feFlood flood-opacity="0" result="BackgroundImageFix"/>
<feColorMatrix in="SourceAlpha" type="matrix" values="0 0 0 0 0 0 0 0 0 0 0 0 0 0 0 0 0 0 127 0" result="hardAlpha"/>
<feOffset dx="7.50944" dy="8.76102"/>
<feGaussianBlur stdDeviation="5.00629"/>
<feComposite in2="hardAlpha" operator="out"/>
<feColorMatrix type="matrix" values="0 0 0 0 0 0 0 0 0 0 0 0 0 0 0 0 0 0 0.48 0"/>
<feBlend mode="normal" in2="BackgroundImageFix" result="effect1_dropShadow_2069_1975"/>
<feColorMatrix in="SourceAlpha" type="matrix" values="0 0 0 0 0 0 0 0 0 0 0 0 0 0 0 0 0 0 127 0" result="hardAlpha"/>
<feOffset dx="-7.50944" dy="-7.50944"/>
<feGaussianBlur stdDeviation="10.0126"/>
<feComposite in2="hardAlpha" operator="out"/>
<feColorMatrix type="matrix" values="0 0 0 0 0.0156863 0 0 0 0 0.0588235 0 0 0 0 0.121569 0 0 0 0.74 0"/>
<feBlend mode="normal" in2="effect1_dropShadow_2069_1975" result="effect2_dropShadow_2069_1975"/>
<feBlend mode="normal" in="SourceGraphic" in2="effect2_dropShadow_2069_1975" result="shape"/>
<feColorMatrix in="SourceAlpha" type="matrix" values="0 0 0 0 0 0 0 0 0 0 0 0 0 0 0 0 0 0 127 0" result="hardAlpha"/>
<feOffset dx="1.25157" dy="1.25157"/>
<feComposite in2="hardAlpha" operator="arithmetic" k2="-1" k3="1"/>
<feColorMatrix type="matrix" values="0 0 0 0 1 0 0 0 0 1 0 0 0 0 1 0 0 0 0.15 0"/>
<feBlend mode="normal" in2="shape" result="effect3_innerShadow_2069_1975"/>
<feColorMatrix in="SourceAlpha" type="matrix" values="0 0 0 0 0 0 0 0 0 0 0 0 0 0 0 0 0 0 127 0" result="hardAlpha"/>
<feOffset dx="-1.25157" dy="-1.25157"/>
<feComposite in2="hardAlpha" operator="arithmetic" k2="-1" k3="1"/>
<feColorMatrix type="matrix" values="0 0 0 0 0 0 0 0 0 0 0 0 0 0 0 0 0 0 1 0"/>
<feBlend mode="normal" in2="effect3_innerShadow_2069_1975" result="effect4_innerShadow_2069_1975"/>
</filter>
<filter id="filter1_f_2069_1975" x="11.506" y="66.1896" width="98.8503" height="71.6911" filterUnits="userSpaceOnUse" color-interpolation-filters="sRGB">
<feFlood flood-opacity="0" result="BackgroundImageFix"/>
<feBlend mode="normal" in="SourceGraphic" in2="BackgroundImageFix" result="shape"/>
<feGaussianBlur stdDeviation="13.1415" result="effect1_foregroundBlur_2069_1975"/>
</filter>
<linearGradient id="paint0_linear_2069_1975" x1="60.9314" y1="28.1875" x2="60.9314" y2="112.592" gradientUnits="userSpaceOnUse">
<stop stop-color="#010305"/>
<stop offset="1" stop-color="white"/>
</linearGradient>
<linearGradient id="paint1_linear_2069_1975" x1="15.9261" y1="14.5532" x2="80.2941" y2="56.0818" gradientUnits="userSpaceOnUse">
<stop stop-color="white"/>
<stop offset="1" stop-color="white" stop-opacity="0"/>
</linearGradient>
<linearGradient id="paint2_linear_2069_1975" x1="30.7602" y1="93.1953" x2="31.3273" y2="99.5317" gradientUnits="userSpaceOnUse">
<stop stop-color="#FCDD14"/>
<stop offset="1" stop-color="#F8A61A"/>
</linearGradient>
</defs>
</svg>
