<svg width="446" height="139" viewBox="0 0 446 139" fill="none" xmlns="http://www.w3.org/2000/svg">
<path d="M427.972 137.428H18.1118C9.14636 137.428 1.9082 130.19 1.9082 121.224V17.4224C1.9082 8.45692 9.14636 1.21875 18.1118 1.21875H427.89C436.856 1.21875 444.094 8.45692 444.094 17.4224V121.224C444.176 130.19 436.938 137.428 427.972 137.428Z" fill="white"/>
<path d="M428.55 138.578H17.5382C8.32595 138.578 0.758789 131.011 0.758789 121.799V16.8458C0.758789 7.63357 8.32595 0.0664062 17.5382 0.0664062H428.55C437.763 0.0664062 445.33 7.63357 445.33 16.8458V121.799C445.33 131.094 437.845 138.578 428.55 138.578ZM17.5382 2.4517C9.55973 2.4517 3.14409 8.94959 3.14409 16.8458V121.799C3.14409 129.777 9.64198 136.193 17.5382 136.193H428.55C436.529 136.193 442.944 129.695 442.944 121.799V16.8458C442.944 8.86734 436.446 2.4517 428.55 2.4517H17.5382Z" fill="#2B2C2D"/>
<path d="M176.122 36.094C180.975 36.094 183.936 39.1373 183.936 44.3191C183.936 49.501 181.057 52.5443 176.122 52.5443H170.611V36.0117H176.122V36.094ZM172.668 50.7348H176.04C179.741 50.7348 181.88 48.4317 181.88 44.3191C181.88 40.2065 179.824 37.9035 176.04 37.9035H172.668V50.7348Z" fill="#333333"/>
<path d="M186.729 46.6259C186.729 42.8423 188.95 40.457 192.24 40.457C195.53 40.457 197.751 42.8423 197.751 46.6259C197.751 50.4095 195.53 52.7948 192.24 52.7948C188.95 52.7948 186.729 50.4095 186.729 46.6259ZM195.695 46.6259C195.695 43.8294 194.297 42.1843 192.24 42.1843C190.102 42.1843 188.786 43.7471 188.786 46.6259C188.786 49.4225 190.184 51.0675 192.24 51.0675C194.379 51.0675 195.695 49.4225 195.695 46.6259Z" fill="#333333"/>
<path d="M212.721 52.5398H210.665L207.951 43.3276H207.868L205.154 52.5398H203.098L199.808 40.6133H201.782L204.167 50.319H204.249L206.964 40.6133H208.855L211.57 50.319H211.652L214.037 40.6133H216.011L212.721 52.5398Z" fill="#333333"/>
<path d="M218.805 40.7038H220.696V42.5956H220.779C221.437 41.2796 222.671 40.457 224.562 40.457C227.194 40.457 228.675 42.1021 228.675 44.8164V52.548H226.701V45.1454C226.701 43.2536 225.796 42.1843 223.987 42.1843C222.095 42.1843 220.861 43.5003 220.861 45.5566V52.548H218.887V40.7038H218.805Z" fill="#333333"/>
<path d="M232.46 36.0977H234.434V52.6303H232.46V36.0977Z" fill="#333333"/>
<path d="M237.727 46.6259C237.727 42.8423 239.947 40.457 243.237 40.457C246.528 40.457 248.748 42.8423 248.748 46.6259C248.748 50.4095 246.528 52.7948 243.237 52.7948C239.947 52.7948 237.727 50.4095 237.727 46.6259ZM246.692 46.6259C246.692 43.8294 245.294 42.1843 243.237 42.1843C241.181 42.1843 239.783 43.7471 239.783 46.6259C239.783 49.4225 241.181 51.0675 243.237 51.0675C245.294 51.0675 246.692 49.4225 246.692 46.6259Z" fill="#333333"/>
<path d="M251.378 49.1677C251.378 47.1114 252.941 45.8776 255.655 45.7131L259.027 45.5486V44.5616C259.027 43.0811 258.04 42.2585 256.395 42.2585C254.833 42.2585 253.928 42.9988 253.681 44.1503H251.789C251.954 42.094 253.681 40.5312 256.478 40.5312C259.274 40.5312 261.001 42.0118 261.001 44.3971V52.6222H259.11V50.566H259.027C258.287 51.9642 256.807 52.7868 255.244 52.7868C253.023 52.7868 251.378 51.3062 251.378 49.1677ZM259.11 48.0161V47.0291L255.902 47.1936C254.339 47.2759 253.352 48.0162 253.352 49.0854C253.352 50.237 254.339 50.9772 255.737 50.9772C257.711 51.0595 259.11 49.7434 259.11 48.0161Z" fill="#333333"/>
<path d="M264.212 46.6222C264.212 42.9209 266.268 40.4533 269.229 40.4533C270.957 40.4533 272.273 41.2758 273.013 42.5919H273.095V36.0117H275.069V52.5443H273.177V50.5703C272.437 51.9686 271.039 52.7911 269.312 52.7911C266.268 52.7911 264.212 50.3235 264.212 46.6222ZM266.268 46.6222C266.268 49.3365 267.584 51.0638 269.723 51.0638C271.779 51.0638 273.177 49.3365 273.177 46.6222C273.177 43.9901 271.779 42.1806 269.723 42.1806C267.584 42.2629 266.268 43.9079 266.268 46.6222Z" fill="#333333"/>
<path d="M284.362 46.6259C284.362 42.8423 286.583 40.457 289.873 40.457C293.163 40.457 295.384 42.8423 295.384 46.6259C295.384 50.4095 293.163 52.7948 289.873 52.7948C286.583 52.7948 284.362 50.4095 284.362 46.6259ZM293.328 46.6259C293.328 43.8294 291.929 42.1843 289.873 42.1843C287.817 42.1843 286.419 43.7471 286.419 46.6259C286.419 49.4225 287.817 51.0675 289.873 51.0675C291.929 51.0675 293.328 49.4225 293.328 46.6259Z" fill="#333333"/>
<path d="M298.509 40.7038H300.401V42.5956H300.483C301.141 41.2796 302.375 40.457 304.266 40.457C306.898 40.457 308.379 42.1021 308.379 44.8164V52.548H306.405V45.1454C306.405 43.2536 305.5 42.1843 303.691 42.1843C301.799 42.1843 300.565 43.5003 300.565 45.5566V52.548H298.591V40.7038H298.509Z" fill="#333333"/>
<path d="M320.632 37.8205V40.6994H322.935V42.3444H320.632V49.418C320.632 50.4873 321.126 50.9808 322.113 50.9808C322.359 50.9808 322.771 50.9808 322.935 50.8986V52.5436C322.689 52.6259 322.113 52.6259 321.701 52.6259C319.481 52.6259 318.658 51.7211 318.658 49.418V42.2621H316.849V40.6171H318.658V37.7383H320.632V37.8205Z" fill="#333333"/>
<path d="M326.312 36.0977H328.287V42.5956H328.369C329.027 41.2795 330.343 40.457 332.152 40.457C334.784 40.457 336.347 42.1843 336.347 44.8986V52.548H334.373V45.2276C334.373 43.3358 333.386 42.1843 331.577 42.1843C329.603 42.1843 328.369 43.5003 328.369 45.5566V52.4658H326.312V36.0977Z" fill="#333333"/>
<path d="M349.835 49.1677C349.506 51.224 347.449 52.7868 344.9 52.7868C341.527 52.7868 339.389 50.4015 339.389 46.7001C339.389 42.9988 341.527 40.5312 344.735 40.5312C347.943 40.5312 349.917 42.8343 349.917 46.4534V47.1936H341.363V47.2759C341.363 49.5789 342.679 51.0595 344.817 51.0595C346.298 51.0595 347.449 50.3192 347.778 49.1677H349.835ZM341.445 45.6308H347.943C347.861 43.6568 346.627 42.2585 344.735 42.2585C342.925 42.1763 341.609 43.6568 341.445 45.6308Z" fill="#333333"/>
<path d="M180.808 65.7891H185.99L197.094 96.469H192.077L189.28 88.1615H177.436L174.639 96.469H169.622L180.808 65.7891ZM178.752 84.3779H187.964L183.358 70.8886H183.276L178.752 84.3779Z" fill="#333333"/>
<path d="M202.108 74.0949H206.715V77.9607H206.797C208.113 75.3286 210.58 73.6836 213.788 73.6836C219.464 73.6836 223.165 78.1252 223.165 85.2811C223.165 92.437 219.464 96.8786 213.87 96.8786C210.663 96.8786 208.113 95.2335 206.797 92.6837H206.715V103.87H202.108V74.0949ZM218.476 85.2811C218.476 80.5105 216.173 77.5494 212.637 77.5494C209.182 77.5494 206.715 80.5927 206.715 85.1988C206.715 89.8049 209.182 92.8482 212.637 92.8482C216.256 92.9305 218.476 90.0517 218.476 85.2811Z" fill="#333333"/>
<path d="M228.927 74.0949H233.533V77.9607H233.615C234.931 75.3286 237.399 73.6836 240.606 73.6836C246.282 73.6836 249.983 78.1252 249.983 85.2811C249.983 92.437 246.282 96.8786 240.689 96.8786C237.481 96.8786 234.931 95.2335 233.615 92.6837H233.533V103.87H228.927V74.0949ZM245.295 85.2811C245.295 80.5105 242.992 77.5494 239.455 77.5494C236 77.5494 233.533 80.5927 233.533 85.1988C233.533 89.8049 236 92.8482 239.455 92.8482C242.992 92.9305 245.295 90.0517 245.295 85.2811Z" fill="#333333"/>
<path d="M265.856 88.3193V87.9903H270.463L270.545 88.2371C270.956 91.0336 273.835 92.8432 277.865 92.8432C281.978 92.8432 284.528 91.0336 284.528 88.1548C284.528 85.6872 282.883 84.3713 278.77 83.4665L275.398 82.7262C269.393 81.4102 266.432 78.6958 266.432 74.172C266.432 68.9079 271.038 65.3711 277.536 65.3711C283.952 65.3711 288.311 68.8257 288.64 74.0075V74.3365H284.034V74.0075C283.623 71.1287 281.155 69.4014 277.536 69.4014C273.753 69.4014 271.285 71.2109 271.285 73.9252C271.285 76.2283 273.012 77.6266 276.878 78.4491L280.251 79.1894C286.584 80.5054 289.298 83.1375 289.298 87.8258C289.298 93.4189 284.857 96.9557 277.618 96.9557C270.792 96.9557 266.268 93.7479 265.856 88.3193Z" fill="#333333"/>
<path d="M296.619 90.6224V77.7912H293.411V74.0899H296.619V68.25H301.307V74.0899H305.502V77.709H301.307V90.2935C301.307 92.5965 302.294 93.2545 304.268 93.2545C304.762 93.2545 305.173 93.1723 305.502 93.1723V96.7091C305.009 96.7913 304.104 96.8736 303.199 96.8736C298.757 96.9559 296.619 95.064 296.619 90.6224Z" fill="#333333"/>
<path d="M309.945 85.2811C309.945 78.1252 314.14 73.6836 320.556 73.6836C326.971 73.6836 331.166 78.1252 331.166 85.2811V85.3634C331.166 92.6015 326.971 96.9608 320.556 96.9608C314.14 96.9608 309.945 92.5192 309.945 85.2811ZM326.478 85.2811C326.478 80.346 324.175 77.5494 320.556 77.5494C317.019 77.5494 314.634 80.346 314.634 85.2811V85.3634C314.634 90.2985 316.937 93.1773 320.556 93.1773C324.175 93.095 326.478 90.2162 326.478 85.2811Z" fill="#333333"/>
<path d="M336.842 74.0949H341.448V77.9607H341.53C342.27 75.3286 344.162 73.6836 346.712 73.6836C347.37 73.6836 347.946 73.7659 348.275 73.8481V78.1252C347.946 77.9607 347.123 77.8784 346.219 77.8784C343.257 77.8784 341.448 79.8525 341.448 83.1425V96.4674H336.842V74.0949Z" fill="#333333"/>
<path d="M351.399 85.3634C351.399 78.372 355.43 73.6836 361.681 73.6836C367.932 73.6836 371.798 78.2075 371.798 84.9521V86.5148H355.923C356.006 90.7097 358.309 93.1773 362.01 93.1773C364.724 93.1773 366.534 91.779 367.11 90.1339L367.192 89.9694H371.551L371.469 90.2162C370.729 93.753 367.274 96.9608 361.845 96.9608C355.348 96.9608 351.399 92.437 351.399 85.3634ZM356.006 83.2248H367.274C366.863 79.3589 364.724 77.4672 361.763 77.4672C358.72 77.4672 356.417 79.4412 356.006 83.2248Z" fill="#333333"/>
<path d="M128.745 59.6918C125.867 61.6658 123.975 63.7221 122.906 65.6962C121.836 67.6702 121.343 69.891 121.343 72.1941C121.343 74.0859 121.672 75.7309 122.247 77.2937C122.823 78.8565 123.728 80.2548 124.88 81.653C126.031 83.0513 127.841 84.3673 130.473 85.7656C129.486 88.7267 127.923 91.77 125.784 94.8956C123.646 98.0211 121.754 100.16 120.027 101.476C118.299 102.792 116.654 103.45 115.092 103.45C113.858 103.45 112.131 103.038 109.992 102.216L109.005 101.887L107.36 101.229C106.208 100.9 104.892 100.735 103.576 100.735C102.178 100.735 100.533 101.064 98.7235 101.64L97.4897 102.134L95.9269 102.792C94.6931 103.285 93.3771 103.532 92.1433 103.532C89.5113 103.532 86.6325 101.64 83.5892 97.9389C80.5458 94.2375 78.2428 90.2072 76.68 85.9301C75.1172 81.653 74.377 77.2937 74.377 72.9343C74.377 67.3412 75.9397 62.6529 79.1476 58.8693C82.3554 55.168 86.7147 53.2762 92.1433 53.2762C94.1174 53.2762 96.0092 53.6052 97.7365 54.3454L98.9702 54.839L100.204 55.3325C101.356 55.826 102.178 55.9905 102.836 55.9905C103.823 55.9905 104.81 55.826 105.797 55.4147L107.442 54.7567L108.676 54.2632C110.65 53.5229 112.789 53.1939 115.174 53.1939C120.767 53.1939 125.291 55.3325 128.745 59.6918ZM115.421 34.7695C115.503 35.5098 115.503 36.1678 115.503 36.5791C115.503 38.7176 114.845 40.9384 113.611 43.3237C112.377 45.6268 110.732 47.4363 108.676 48.6701C106.62 49.9861 104.399 50.5619 101.931 50.5619C101.849 49.7393 101.767 49.0813 101.767 48.7523C101.767 46.9428 102.343 44.9687 103.412 42.9125C104.481 40.8562 106.044 39.1289 107.853 37.7306C109.745 36.3323 111.884 35.4275 114.269 35.0163C114.598 34.8518 114.927 34.7695 115.421 34.7695Z" fill="#333333"/>
</svg>
